<?xml version="1.0"?>
<svg xmlns="http://www.w3.org/2000/svg" xmlns:xlink="http://www.w3.org/1999/xlink" xmlns:svgjs="http://svgjs.com/svgjs" version="1.1" width="512" height="512" x="0" y="0" viewBox="0 0 480 480" style="enable-background:new 0 0 512 512" xml:space="preserve" class=""><g>
<g xmlns="http://www.w3.org/2000/svg">
	<g>
		<path d="M104,248h0.808c3.72,18.232,19.872,32,39.192,32s35.472-13.768,39.192-32h121.616c3.72,18.232,19.872,32,39.192,32    c19.44,0,35.648-13.952,39.232-32.368C437.2,243.896,480,198.904,480,144v-8c0-57.344-46.656-104-104-104h-96.808    C275.472,13.768,259.312,0,240,0s-35.472,13.768-39.192,32H79.192C75.472,13.768,59.312,0,40,0C17.944,0,0,17.944,0,40    c0,22.056,17.944,40,40,40c19.312,0,35.472-13.768,39.192-32h121.616c3.72,18.232,19.872,32,39.192,32s35.472-13.768,39.192-32    H376c48.52,0,88,39.48,88,88v8c0,46.128-35.696,84.008-80.912,87.64C379.232,213.592,363.184,200,344,200    c-19.312,0-35.472,13.768-39.192,32H183.192c-3.72-18.232-19.872-32-39.192-32s-35.472,13.768-39.192,32H104    C46.656,232,0,278.656,0,336v8c0,57.344,46.656,104,104,104h96.808c3.72,18.232,19.872,32,39.192,32s35.472-13.768,39.192-32    h121.616c3.72,18.232,19.872,32,39.192,32c22.056,0,40-17.944,40-40c0-22.056-17.944-40-40-40c-19.312,0-35.472,13.768-39.192,32    H279.192c-3.72-18.232-19.872-32-39.192-32s-35.472,13.768-39.192,32H104c-48.52,0-88-39.48-88-88v-8C16,287.48,55.48,248,104,248    z M40,64c-13.232,0-24-10.768-24-24s10.768-24,24-24s24,10.768,24,24S53.232,64,40,64z M240,64c-13.232,0-24-10.768-24-24    s10.768-24,24-24s24,10.768,24,24S253.232,64,240,64z M344,216c13.232,0,24,10.768,24,24s-10.768,24-24,24s-24-10.768-24-24    S330.768,216,344,216z M144,216c13.232,0,24,10.768,24,24s-10.768,24-24,24s-24-10.768-24-24S130.768,216,144,216z M440,416    c13.232,0,24,10.768,24,24s-10.768,24-24,24s-24-10.768-24-24S426.768,416,440,416z M240,416c13.232,0,24,10.768,24,24    s-10.768,24-24,24s-24-10.768-24-24S226.768,416,240,416z" fill="#004aa9" data-original="#000000" style="" class=""/>
	</g>
</g>
<g xmlns="http://www.w3.org/2000/svg">
</g>
<g xmlns="http://www.w3.org/2000/svg">
</g>
<g xmlns="http://www.w3.org/2000/svg">
</g>
<g xmlns="http://www.w3.org/2000/svg">
</g>
<g xmlns="http://www.w3.org/2000/svg">
</g>
<g xmlns="http://www.w3.org/2000/svg">
</g>
<g xmlns="http://www.w3.org/2000/svg">
</g>
<g xmlns="http://www.w3.org/2000/svg">
</g>
<g xmlns="http://www.w3.org/2000/svg">
</g>
<g xmlns="http://www.w3.org/2000/svg">
</g>
<g xmlns="http://www.w3.org/2000/svg">
</g>
<g xmlns="http://www.w3.org/2000/svg">
</g>
<g xmlns="http://www.w3.org/2000/svg">
</g>
<g xmlns="http://www.w3.org/2000/svg">
</g>
<g xmlns="http://www.w3.org/2000/svg">
</g>
</g></svg>
