<?xml version="1.0"?>
<svg xmlns="http://www.w3.org/2000/svg" xmlns:xlink="http://www.w3.org/1999/xlink" xmlns:svgjs="http://svgjs.com/svgjs" version="1.1" width="512" height="512" x="0" y="0" viewBox="0 0 480 480" style="enable-background:new 0 0 512 512" xml:space="preserve" class=""><g>
<g xmlns="http://www.w3.org/2000/svg">
	<g>
		<path d="M240,0C107.664,0,0,107.664,0,240s107.664,240,240,240s240-107.664,240-240S372.336,0,240,0z M463.92,236.768L424,276.688    l-40.176-40.176c-1.728-71.688-56.016-130.472-125.768-139.256l35.6-35.6c3.128-3.128,3.128-8.184,0-11.312L260.272,16.96    C373.256,27.152,462.272,121.56,463.92,236.768z M368,240c0,70.576-57.424,128-128,128s-128-57.424-128-128s57.424-128,128-128    S368,169.424,368,240z M236.768,16.08L276.688,56l-40.176,40.176c-74.168,1.792-134.504,59.84-139.968,133.056l-34.888-34.888    c-3.128-3.128-8.184-3.128-11.312,0l-34.04,34.04C22.304,111.32,118.624,17.768,236.768,16.08z M16.28,251.032L56,211.312    l40.608,40.608c5.8,70.272,62.208,126.288,132.632,131.536l-34.888,34.888c-3.128,3.128-3.128,8.184,0,11.312l34.04,34.04    C113.904,457.824,21.864,365.592,16.28,251.032z M251.032,463.72L211.312,424l40.6-40.6    c67.832-5.6,122.392-58.344,130.824-125.344l35.6,35.6c1.568,1.56,3.616,2.344,5.664,2.344c2.048,0,4.096-0.784,5.656-2.344    l33.384-33.384C453.08,370.704,362.688,458.28,251.032,463.72z" fill="#004aa9" data-original="#000000" style=""/>
	</g>
</g>
<g xmlns="http://www.w3.org/2000/svg">
</g>
<g xmlns="http://www.w3.org/2000/svg">
</g>
<g xmlns="http://www.w3.org/2000/svg">
</g>
<g xmlns="http://www.w3.org/2000/svg">
</g>
<g xmlns="http://www.w3.org/2000/svg">
</g>
<g xmlns="http://www.w3.org/2000/svg">
</g>
<g xmlns="http://www.w3.org/2000/svg">
</g>
<g xmlns="http://www.w3.org/2000/svg">
</g>
<g xmlns="http://www.w3.org/2000/svg">
</g>
<g xmlns="http://www.w3.org/2000/svg">
</g>
<g xmlns="http://www.w3.org/2000/svg">
</g>
<g xmlns="http://www.w3.org/2000/svg">
</g>
<g xmlns="http://www.w3.org/2000/svg">
</g>
<g xmlns="http://www.w3.org/2000/svg">
</g>
<g xmlns="http://www.w3.org/2000/svg">
</g>
</g></svg>
