<?xml version="1.0"?>
<svg xmlns="http://www.w3.org/2000/svg" xmlns:xlink="http://www.w3.org/1999/xlink" xmlns:svgjs="http://svgjs.com/svgjs" version="1.1" width="512" height="512" x="0" y="0" viewBox="0 0 480 480" style="enable-background:new 0 0 512 512" xml:space="preserve" class=""><g>
<g xmlns="http://www.w3.org/2000/svg">
	<g>
		<path d="M366.343,322.344l-16.168,16.168l-10.176-35.632v-88.752l17.056,29.84c0.456,0.8,1.04,1.504,1.744,2.104l56,48    c3.16,2.72,7.896,2.536,10.856-0.416l32-32c3.128-3.128,3.128-8.184,0-11.312l-47.08-47.088l-26.16-52.304    C374.863,131.856,355.679,120,334.335,120h-20.824c11.456-12.752,18.488-29.552,18.488-48c0-10.728-2.424-20.88-6.648-30.04    L351.311,16h108.688V0h-112c-2.128,0-4.16,0.84-5.656,2.344l-25.552,25.552C303.607,10.96,283.079,0,259.999,0    c-39.704,0-72,32.296-72,72c0,18.448,7.032,35.248,18.488,48h-20.824c-9.784,0-19.056,2.592-27.216,7.136l-44.792-44.792    C112.159,80.84,110.127,80,107.999,80h-88v16h84.688l40.936,40.936c-3.96,4.08-7.4,8.736-10.04,14.024l-26.296,52.584    l-23.272,27.16l-20.352-20.352C64.159,208.84,62.127,208,59.999,208h-40v16h36.688l18.88,18.88l-13.64,15.92    c-2.728,3.168-2.536,7.904,0.416,10.856l32,32c3.128,3.128,8.184,3.128,11.312,0l56-56c0.496-0.496,0.936-1.072,1.288-1.688    l17.056-29.84v88.752l-27.96,97.848l-30.384-30.384c-1.496-1.504-3.528-2.344-5.656-2.344h-96v16h92.688l34.328,34.328    l-14.712,51.48c-0.688,2.416-0.2,5.008,1.304,7.016c1.52,2,3.888,3.176,6.392,3.176h72c3.568,0,6.712-2.368,7.696-5.808    l40.304-141.072l40.304,141.08c0.984,3.432,4.128,5.8,7.696,5.8h72c2.504,0,4.872-1.176,6.392-3.176    c1.504-2.008,1.992-4.6,1.304-7.016l-32.488-113.696L375.311,336h84.688v-16h-88C369.871,320,367.839,320.84,366.343,322.344z     M203.999,72c0-30.872,25.128-56,56-56c18.672,0,35.192,9.224,45.376,23.312l-19.032,19.032l11.312,11.312l15.408-15.408    c1.88,5.584,2.936,11.544,2.936,17.752c0,21.12-11.768,39.544-29.08,49.08c-1.968,1.08-4.008,2.04-6.088,2.864    c-0.144,0.056-0.296,0.104-0.448,0.16c-12.976,4.992-27.792,4.992-40.768,0c-0.144-0.056-0.296-0.104-0.448-0.16    c-2.088-0.824-4.12-1.776-6.088-2.864C215.767,111.544,203.999,93.12,203.999,72z M369.391,464h-55.36l-46.336-162.192    c-0.984-3.44-4.128-5.808-7.696-5.808s-6.712,2.368-7.696,5.808L205.967,464h-55.36l9.352-32.728l14.384,14.384l11.312-11.312    l-20.672-20.672l30.704-107.48c0.208-0.704,0.312-1.448,0.312-2.192V184c0-3.624-2.44-6.808-5.944-7.736    c-3.536-0.936-7.208,0.608-9,3.768l-31.472,55.072l-49.584,49.584l-21.104-21.112l8.016-9.352l7.432,7.432l11.312-11.312    l-8.304-8.304l24.712-28.84c0.432-0.496,0.792-1.04,1.088-1.624l26.736-53.472c1.856-3.712,4.256-7,7.024-9.88l9.424,9.424    l11.312-11.312l-7.28-7.28c4.768-1.952,9.92-3.056,15.296-3.056h41.376c0.448,0.232,0.936,0.392,1.392,0.608    c1.856,0.912,3.752,1.752,5.688,2.496c0.52,0.2,1.04,0.392,1.568,0.576c7.608,2.744,15.768,4.32,24.312,4.32    s16.704-1.576,24.312-4.312c0.528-0.184,1.048-0.376,1.568-0.576c1.944-0.752,3.84-1.592,5.696-2.504    c0.456-0.224,0.936-0.376,1.392-0.608h41.376c15.232,0,28.944,8.472,35.768,22.112l26.736,53.472    c0.384,0.768,0.888,1.472,1.504,2.08L440.687,256l-21.112,21.104l-49.32-42.272l-31.312-54.8c-1.8-3.16-5.48-4.704-9-3.768    c-3.504,0.928-5.944,4.112-5.944,7.736v120c0,0.744,0.104,1.488,0.304,2.192l12.928,45.256l-18.888,18.888l11.312,11.312    l12.608-12.608L369.391,464z" fill="#004aa9" data-original="#000000" style="" class=""/>
	</g>
</g>
<g xmlns="http://www.w3.org/2000/svg">
	<g>
		<path d="M279.311,224l-11.312-11.312V176h-16v36.688L240.687,224h-20.688v16h24c2.128,0,4.16-0.84,5.656-2.344l10.344-10.344    l10.344,10.344c1.496,1.504,3.528,2.344,5.656,2.344h24v-16H279.311z" fill="#004aa9" data-original="#000000" style="" class=""/>
	</g>
</g>
<g xmlns="http://www.w3.org/2000/svg">
</g>
<g xmlns="http://www.w3.org/2000/svg">
</g>
<g xmlns="http://www.w3.org/2000/svg">
</g>
<g xmlns="http://www.w3.org/2000/svg">
</g>
<g xmlns="http://www.w3.org/2000/svg">
</g>
<g xmlns="http://www.w3.org/2000/svg">
</g>
<g xmlns="http://www.w3.org/2000/svg">
</g>
<g xmlns="http://www.w3.org/2000/svg">
</g>
<g xmlns="http://www.w3.org/2000/svg">
</g>
<g xmlns="http://www.w3.org/2000/svg">
</g>
<g xmlns="http://www.w3.org/2000/svg">
</g>
<g xmlns="http://www.w3.org/2000/svg">
</g>
<g xmlns="http://www.w3.org/2000/svg">
</g>
<g xmlns="http://www.w3.org/2000/svg">
</g>
<g xmlns="http://www.w3.org/2000/svg">
</g>
</g></svg>
