<?xml version="1.0"?>
<svg xmlns="http://www.w3.org/2000/svg" xmlns:xlink="http://www.w3.org/1999/xlink" xmlns:svgjs="http://svgjs.com/svgjs" version="1.1" width="512" height="512" x="0" y="0" viewBox="0 0 511.949 511.949" style="enable-background:new 0 0 512 512" xml:space="preserve" class=""><g><g xmlns="http://www.w3.org/2000/svg"><g><path d="m255.974 511.949c-11.072 0-21.676-3.422-30.666-9.895-59.93-43.156-199.321-156.054-199.321-272.066 0-61.432 23.923-119.187 67.362-162.626s101.193-67.362 162.625-67.362 119.187 23.923 162.626 67.362c43.438 43.439 67.361 101.194 67.361 162.626 0 116.012-139.392 228.911-199.321 272.066-8.989 6.473-19.593 9.895-30.666 9.895zm0-481.949c-110.273 0-199.987 89.714-199.987 199.988 0 43.611 24.291 92.87 72.199 146.408 41.053 45.878 89.456 83.168 114.653 101.313 3.852 2.773 8.394 4.24 13.135 4.24 4.742 0 9.284-1.466 13.135-4.24 25.198-18.145 73.601-55.435 114.654-101.313 47.907-53.538 72.198-102.797 72.198-146.408.001-110.274-89.713-199.988-199.987-199.988z" fill="#fdfdfd" data-original="#000000" style=""/></g><g><path d="m255.974 411.586c-26.201 0-51.103-12.641-66.612-33.813l24.201-17.729c9.881 13.489 25.735 21.542 42.411 21.542s32.531-8.053 42.411-21.541l24.201 17.728c-15.509 21.173-40.41 33.813-66.612 33.813z" fill="#fdfdfd" data-original="#000000" style=""/></g><g><path d="m335.304 304.509c-9.859 0-19.101-2.822-26.725-8.161-12.91-9.04-20.298-24.722-20.269-43.025.027-16.568 5.958-34.142 16.701-49.484 15.742-22.482 39.279-36.449 61.427-36.449 9.858 0 19.1 2.822 26.725 8.16 12.91 9.041 20.298 24.723 20.268 43.026-.027 16.568-5.958 34.142-16.701 49.484-15.742 22.482-39.28 36.449-61.426 36.449zm31.135-107.119c-14.015 0-28.607 11.881-36.853 23.656-13.362 19.084-15.138 42.789-3.8 50.729 2.592 1.814 5.794 2.735 9.518 2.735 14.015 0 28.606-11.881 36.852-23.656 13.362-19.084 15.139-42.789 3.801-50.729-2.592-1.815-5.795-2.735-9.518-2.735z" fill="#fdfdfd" data-original="#000000" style=""/></g><g><path d="m176.647 304.509c-.001 0-.002 0-.003 0-22.147-.001-45.684-13.968-61.425-36.449-10.743-15.342-16.674-32.916-16.701-49.484-.03-18.303 7.357-33.985 20.268-43.025 7.625-5.339 16.866-8.161 26.725-8.161 22.147 0 45.684 13.966 61.426 36.449 10.743 15.342 16.674 32.916 16.701 49.484.03 18.303-7.357 33.985-20.268 43.025-7.625 5.339-16.865 8.161-26.723 8.161zm-31.137-107.119c-3.724 0-6.926.92-9.518 2.735-11.338 7.939-9.563 31.644 3.8 50.728 8.245 11.774 22.837 23.655 36.853 23.656h.001c3.722 0 6.923-.92 9.515-2.735 11.338-7.939 9.563-31.644-3.8-50.728-8.244-11.775-22.836-23.656-36.851-23.656z" fill="#fdfdfd" data-original="#000000" style=""/></g></g></g></svg>
