<?xml version="1.0"?>
<svg xmlns="http://www.w3.org/2000/svg" xmlns:xlink="http://www.w3.org/1999/xlink" xmlns:svgjs="http://svgjs.com/svgjs" version="1.1" width="512" height="512" x="0" y="0" viewBox="0 0 480.012 480.012" style="enable-background:new 0 0 512 512" xml:space="preserve" class=""><g>
<g xmlns="http://www.w3.org/2000/svg">
	<g>
		<path d="M479.166,468.252l-232-464c-2.72-5.424-11.6-5.424-14.32,0l-232,464c-1.24,2.48-1.112,5.424,0.352,7.784    c1.464,2.352,4.032,3.792,6.808,3.792h464c2.776,0,5.344-1.44,6.808-3.792C480.278,473.676,480.406,470.732,479.166,468.252z     M240.006,25.716l35.056,70.112H204.95L240.006,25.716z M196.95,111.828h86.112l28,56H168.95L196.95,111.828z M160.95,183.828    h158.112l28,56H132.95L160.95,183.828z M124.95,255.828h230.112l28,56H96.95L124.95,255.828z M88.95,327.828h302.112l28,56H60.95    L88.95,327.828z M20.95,463.828l32-64h374.112l32,64H20.95z" fill="#ffffff" data-original="#000000" style="" class=""/>
	</g>
</g>
<g xmlns="http://www.w3.org/2000/svg">
</g>
<g xmlns="http://www.w3.org/2000/svg">
</g>
<g xmlns="http://www.w3.org/2000/svg">
</g>
<g xmlns="http://www.w3.org/2000/svg">
</g>
<g xmlns="http://www.w3.org/2000/svg">
</g>
<g xmlns="http://www.w3.org/2000/svg">
</g>
<g xmlns="http://www.w3.org/2000/svg">
</g>
<g xmlns="http://www.w3.org/2000/svg">
</g>
<g xmlns="http://www.w3.org/2000/svg">
</g>
<g xmlns="http://www.w3.org/2000/svg">
</g>
<g xmlns="http://www.w3.org/2000/svg">
</g>
<g xmlns="http://www.w3.org/2000/svg">
</g>
<g xmlns="http://www.w3.org/2000/svg">
</g>
<g xmlns="http://www.w3.org/2000/svg">
</g>
<g xmlns="http://www.w3.org/2000/svg">
</g>
</g></svg>
